<svg width="56" height="25" viewBox="0 0 56 25" fill="none" xmlns="http://www.w3.org/2000/svg">
<path d="M44.3983 0.967054C44.844 0.737913 45.35 0.652955 45.8462 0.723951C46.3423 0.794944 46.8042 1.01838 47.1677 1.3633C47.5353 1.7198 47.7877 2.17736 47.8908 2.67959L48.4756 5.98136C48.6283 6.80981 48.9717 7.59146 49.4785 8.26458C49.9854 8.93771 50.6419 9.48388 51.3961 9.85996L54.4513 11.3446C54.9005 11.5823 55.2637 11.9548 55.4898 12.4097C55.7159 12.8646 55.7935 13.3789 55.7116 13.8802C55.6298 14.3815 55.3926 14.8444 55.0336 15.2037C54.6745 15.5631 54.2117 15.8008 53.7102 15.8833L50.4016 16.4689C49.5723 16.621 48.7898 16.9638 48.1159 17.4702C47.4421 17.9766 46.8953 18.6327 46.5189 19.3866L45.0303 22.4322C44.7967 22.8789 44.4297 23.2417 43.9801 23.4701C43.5306 23.6986 43.021 23.7813 42.5222 23.7068C42.0234 23.6323 41.5602 23.4043 41.197 23.0545C40.8339 22.7047 40.5888 22.2505 40.496 21.7551L39.8969 18.388C39.7411 17.5809 39.4042 16.8195 38.9114 16.1613C38.4187 15.5031 37.783 14.9652 37.0521 14.588L33.9982 13.1107C33.5515 12.8768 33.1886 12.5098 32.9601 12.0606C32.7315 11.6113 32.6485 11.1021 32.7227 10.6036C32.7969 10.1051 33.0245 9.64216 33.374 9.27892C33.7235 8.91568 34.1775 8.67022 34.673 8.57661L37.9783 7.99765C38.8117 7.84548 39.5978 7.49995 40.2731 6.98885C40.9485 6.47774 41.4944 5.81534 41.8669 5.05492L43.3565 2.00247C43.5881 1.55666 43.9533 1.19528 44.3983 0.967054Z" fill="#9547A5"/>
<path d="M5.97511 13.4378C6.19101 13.3268 6.43613 13.2857 6.6765 13.3201C6.91687 13.3545 7.14061 13.4627 7.31672 13.6298C7.49478 13.8025 7.61708 14.0242 7.667 14.2675L7.95031 15.867C8.02429 16.2683 8.19062 16.647 8.43616 16.9731C8.68171 17.2992 8.99974 17.5637 9.36514 17.7459L10.8452 18.4651C11.0628 18.5803 11.2388 18.7608 11.3483 18.9812C11.4578 19.2015 11.4954 19.4507 11.4558 19.6935C11.4161 19.9363 11.3012 20.1606 11.1273 20.3347C10.9533 20.5088 10.7291 20.6239 10.4862 20.6639L8.88335 20.9476C8.4816 21.0213 8.10252 21.1873 7.77607 21.4326C7.44962 21.678 7.18475 21.9958 7.00239 22.3611L6.28125 23.8365C6.1681 24.0528 5.99028 24.2286 5.77252 24.3393C5.55475 24.4499 5.30788 24.49 5.06623 24.4539C4.82459 24.4179 4.60019 24.3074 4.42427 24.1379C4.24834 23.9685 4.12962 23.7484 4.08464 23.5084L3.79441 21.8773C3.71896 21.4863 3.55573 21.1174 3.31702 20.7986C3.07831 20.4797 2.77034 20.2191 2.41628 20.0364L0.936858 19.3207C0.720432 19.2074 0.544651 19.0296 0.433921 18.812C0.323191 18.5944 0.283004 18.3477 0.318942 18.1062C0.354879 17.8647 0.465157 17.6404 0.634464 17.4645C0.803772 17.2885 1.02371 17.1696 1.26374 17.1242L2.86498 16.8438C3.26872 16.77 3.6495 16.6026 3.97669 16.355C4.30387 16.1074 4.56833 15.7865 4.74879 15.4182L5.4704 13.9394C5.58259 13.7235 5.75951 13.5484 5.97511 13.4378Z" fill="#9547A5"/>
</svg>
