<svg width="31" height="52" viewBox="0 0 31 52" fill="none" xmlns="http://www.w3.org/2000/svg">
<path d="M14.6402 0.755198C15.0492 0.371042 15.5675 0.123458 16.1234 0.0467384C16.6794 -0.0299808 17.2454 0.0679605 17.7431 0.326997C18.2487 0.597248 18.6616 1.0118 18.9275 1.52052L20.5759 4.8936C20.9959 5.7381 21.6067 6.4734 22.3599 7.04143C23.1132 7.60947 23.9883 7.99469 24.9161 8.16667L28.6625 8.8216C29.2192 8.93884 29.7251 9.22772 30.1089 9.64754C30.4926 10.0674 30.7348 10.5969 30.8014 11.1617C30.868 11.7264 30.7556 12.2978 30.4801 12.7954C30.2046 13.293 29.7798 13.6917 29.2656 13.9352L25.8854 15.5865C25.0398 16.0062 24.3034 16.6166 23.7344 17.3696C23.1654 18.1225 22.7794 18.9974 22.607 19.925L21.9447 23.6622C21.8312 24.2151 21.5481 24.7188 21.1348 25.1034C20.7216 25.488 20.1986 25.7343 19.6388 25.8081C19.0789 25.8819 18.5101 25.7794 18.0113 25.515C17.5124 25.2506 17.1085 24.8374 16.8557 24.3328L15.1718 20.8939C14.7551 20.0732 14.1575 19.3578 13.424 18.8015C12.6906 18.2452 11.8403 17.8624 10.9374 17.6821L7.19466 17.0345C6.64168 16.9207 6.13789 16.6377 5.75324 16.2247C5.36859 15.8117 5.12216 15.2893 5.04817 14.7299C4.97417 14.1705 5.07628 13.602 5.34033 13.1032C5.60437 12.6044 6.01724 12.2001 6.52162 11.9464L9.90034 10.3033C10.7503 9.88228 11.4897 9.26782 12.0588 8.50931C12.628 7.75079 13.0111 6.8694 13.1773 5.93603L13.8385 2.19111C13.9501 1.63982 14.2317 1.13817 14.6402 0.755198Z" fill="#9547A5"/>
<path d="M5.34704 38.8853C5.55238 38.6924 5.81265 38.5681 6.0918 38.5296C6.37096 38.4911 6.65517 38.5402 6.90508 38.6703C7.15896 38.806 7.3663 39.0142 7.49982 39.2696L8.32752 40.9633C8.53843 41.3874 8.84511 41.7566 9.22334 42.0418C9.60157 42.3271 10.041 42.5205 10.5069 42.6069L12.3881 42.9357C12.6676 42.9946 12.9216 43.1396 13.1143 43.3504C13.307 43.5612 13.4286 43.8272 13.4621 44.1107C13.4955 44.3943 13.4391 44.6812 13.3007 44.9311C13.1624 45.1809 12.9491 45.3811 12.6909 45.5034L10.9936 46.3326C10.569 46.5433 10.1992 46.8498 9.91351 47.2279C9.6278 47.606 9.434 48.0453 9.3474 48.5111L9.01487 50.3877C8.95787 50.6653 8.81572 50.9182 8.6082 51.1113C8.40067 51.3044 8.13809 51.4281 7.85697 51.4652C7.57586 51.5022 7.29021 51.4508 7.03974 51.318C6.78928 51.1852 6.58646 50.9777 6.4595 50.7244L5.61396 48.9976C5.40471 48.5855 5.10465 48.2263 4.73635 47.9469C4.36806 47.6676 3.94113 47.4754 3.48772 47.3848L1.6084 47.0597C1.33073 47.0025 1.07776 46.8604 0.884613 46.653C0.691467 46.4457 0.567728 46.1833 0.530573 45.9025C0.493418 45.6216 0.544692 45.3361 0.677275 45.0856C0.809859 44.8352 1.01717 44.6322 1.27044 44.5048L2.967 43.6797C3.39382 43.4683 3.76505 43.1598 4.05084 42.7789C4.33663 42.398 4.529 41.9555 4.61247 41.4868L4.94445 39.6063C5.00053 39.3295 5.14189 39.0776 5.34704 38.8853Z" fill="#9547A5"/>
</svg>
